<mxfile host="www.draw.io" modified="2020-03-05T08:36:53.984Z" agent="Mozilla/5.0 (Windows NT 10.0; Win64; x64) AppleWebKit/537.36 (KHTML, like Gecko) Chrome/80.0.3987.122 Safari/537.36" etag="q2qLAmdpvDXSNwYzCs_R" version="12.7.9" type="github">
  <diagram id="tMd9ICzVhDhLZQDkVzP8" name="Page-1">
    <mxGraphModel dx="1038" dy="585" grid="1" gridSize="10" guides="1" tooltips="1" connect="1" arrows="1" fold="1" page="1" pageScale="1" pageWidth="827" pageHeight="1169" math="0" shadow="0">
      <root>
        <mxCell id="0" />
        <mxCell id="1" parent="0" />
        <mxCell id="91jYhELarWI6QOGPaNz7-2" value="" style="edgeStyle=orthogonalEdgeStyle;rounded=0;orthogonalLoop=1;jettySize=auto;html=1;" edge="1" parent="1" source="4impifudvHxg1FR5p295-1" target="91jYhELarWI6QOGPaNz7-1">
          <mxGeometry relative="1" as="geometry" />
        </mxCell>
        <mxCell id="4impifudvHxg1FR5p295-1" value="Hello and welcome to Guessey game.&amp;nbsp;" style="rounded=1;whiteSpace=wrap;html=1;" parent="1" vertex="1">
          <mxGeometry x="296" y="30" width="224" height="60" as="geometry" />
        </mxCell>
        <mxCell id="91jYhELarWI6QOGPaNz7-7" value="" style="edgeStyle=orthogonalEdgeStyle;rounded=0;orthogonalLoop=1;jettySize=auto;html=1;" edge="1" parent="1" source="91jYhELarWI6QOGPaNz7-1" target="91jYhELarWI6QOGPaNz7-5">
          <mxGeometry relative="1" as="geometry" />
        </mxCell>
        <mxCell id="91jYhELarWI6QOGPaNz7-1" value="This a geuss game.&lt;br&gt;You will choose a level and then guess the &quot;unknown&quot; number.&lt;br&gt;You win if you guess right.&lt;br&gt;You lose if you don&#39;t have guesses left." style="rounded=1;whiteSpace=wrap;html=1;" vertex="1" parent="1">
          <mxGeometry x="296" y="170" width="224" height="90" as="geometry" />
        </mxCell>
        <mxCell id="91jYhELarWI6QOGPaNz7-5" value="Eassy&lt;br&gt;" style="shape=hexagon;perimeter=hexagonPerimeter2;whiteSpace=wrap;html=1;" vertex="1" parent="1">
          <mxGeometry x="348" y="340" width="120" height="80" as="geometry" />
        </mxCell>
      </root>
    </mxGraphModel>
  </diagram>
</mxfile>
